<?xml version="1.0" encoding="utf-8"?><svg xmlns="http://www.w3.org/2000/svg" width="256" height="64" xml:space="preserve"><g fill="#FFF"><path d="m80.45 21.52 3.49 13.37 3.48-13.37h4.88V40h-3.75v-5l.34-7.71L85.19 40h-2.54l-3.69-12.71.34 7.71v5h-3.73V21.52h4.88zM108.3 32.42c0 2.48-.59 4.41-1.76 5.78s-2.8 2.06-4.88 2.06c-2.07 0-3.7-.68-4.89-2.04s-1.79-3.26-1.8-5.71v-3.16c0-2.54.59-4.52 1.76-5.95s2.81-2.14 4.9-2.14c2.06 0 3.68.7 4.86 2.1s1.79 3.37 1.8 5.9v3.16zm-3.74-3.1c0-1.67-.24-2.91-.71-3.72s-1.21-1.22-2.21-1.22c-.99 0-1.72.39-2.2 1.17s-.72 1.97-.74 3.57v3.29c0 1.62.24 2.81.72 3.57s1.23 1.15 2.23 1.15c.97 0 1.7-.37 2.17-1.12s.72-1.91.72-3.48v-3.21zM123 21.52v12.8c-.02 1.92-.55 3.39-1.59 4.41s-2.53 1.53-4.48 1.53c-1.98 0-3.49-.52-4.54-1.55s-1.57-2.53-1.57-4.48V21.52h3.76v12.72c0 1.05.17 1.8.51 2.25s.95.67 1.84.67 1.5-.22 1.83-.67.5-1.17.51-2.19V21.52H123zM138.76 40h-3.73l-5.46-12.12V40h-3.73V21.52h3.73l5.47 12.14V21.52h3.72V40zM153.36 24.63h-4.57V40h-3.75V24.63h-4.49v-3.11h12.81v3.11zM173.26 33.84c-.09 2.11-.69 3.7-1.78 4.79s-2.63 1.63-4.62 1.63c-2.09 0-3.69-.69-4.81-2.06s-1.67-3.34-1.67-5.88V29.2c0-2.54.58-4.5 1.73-5.87s2.75-2.06 4.8-2.06c2.01 0 3.54.56 4.59 1.69s1.64 2.74 1.78 4.85h-3.75c-.03-1.3-.23-2.2-.6-2.7s-1.04-.74-2.02-.74c-1 0-1.71.35-2.12 1.05s-.63 1.85-.66 3.45v3.49c0 1.84.21 3.1.62 3.78s1.12 1.03 2.11 1.03c.98 0 1.66-.24 2.03-.72s.58-1.34.63-2.6h3.74zM184.38 36.22h-5.09L178.3 40h-3.95l5.78-18.48h3.42L189.36 40h-3.99l-.99-3.78zm-4.28-3.11h3.45l-1.73-6.59-1.72 6.59zM196.69 33.25h-1.85V40h-3.73V21.52h5.95c1.87 0 3.32.48 4.34 1.45s1.53 2.35 1.53 4.13c0 2.45-.89 4.17-2.68 5.15l3.24 7.57V40h-4.01l-2.79-6.75zm-1.86-3.11h2.12c.74 0 1.3-.25 1.68-.74s.56-1.16.56-1.99c0-1.85-.72-2.78-2.17-2.78h-2.18v5.51zM210.36 21.52l3.49 13.37 3.48-13.37h4.88V40h-3.75v-5l.34-7.71L215.11 40h-2.54l-3.69-12.71.34 7.71v5h-3.73V21.52h4.87zM234.75 32h-5.81v4.9h6.88V40H225.2V21.52h10.59v3.11h-6.86V29h5.81v3zM241.69 36.9h6.55V40h-10.28V21.52h3.73V36.9zM7.09 52h57v2h-57zM7.09 49h57v2h-57zM7.09 46h57v2h-57zM7.09 43h57v2h-57zM7.09 40h57v2h-57zM7.09 37h57v2h-57zM7.09 34h57v2h-57zM7.09 31h57v2h-57zM7.09 28h57v2h-57zM7.09 25h57v2h-57zM59.09 12h1v13h-1z"/><path d="M55.09 16h9v1h-9z"/><g><path d="M75.16 54v-9.95H78c.91 0 1.59.22 2.05.66s.69 1.1.69 1.99c0 .46-.12.88-.35 1.23s-.55.63-.94.83c.46.14.82.42 1.08.84s.4.93.4 1.53c0 .89-.25 1.6-.73 2.11S79 54 78.09 54h-2.93zm1.25-5.71h1.61c.43 0 .78-.15 1.05-.44.27-.29.4-.68.4-1.16 0-.55-.12-.95-.36-1.2s-.61-.37-1.11-.37h-1.59v3.17zm0 1.05v3.58h1.71c.47 0 .85-.16 1.13-.47.28-.31.42-.75.42-1.32 0-1.2-.51-1.8-1.52-1.8h-1.74zM84.1 54h-1.25v-9.95h1.25V54zM86.3 54v-9.95h2.84c.91 0 1.59.22 2.05.66s.69 1.1.69 1.99c0 .46-.12.88-.35 1.23s-.55.63-.94.83c.46.14.82.42 1.08.84s.4.93.4 1.53c0 .89-.25 1.6-.73 2.11s-1.21.76-2.11.76H86.3zm1.25-5.71h1.61c.43 0 .78-.15 1.05-.44.27-.29.4-.68.4-1.16 0-.55-.12-.95-.36-1.2s-.61-.37-1.11-.37h-1.59v3.17zm0 1.05v3.58h1.71c.47 0 .85-.16 1.13-.47.28-.31.42-.75.42-1.32 0-1.2-.51-1.8-1.52-1.8h-1.74zM95.19 52.93h3.9V54h-5.16v-9.95h1.26v8.88zM105.35 49.4h-3.52v3.53h4.1V54h-5.35v-9.95h5.28v1.07h-4.03v3.21h3.52v1.07zM109.61 50.29h-2.82v-1.03h2.82v1.03zM112.26 50.1V54h-1.25v-9.95h3.17c.93 0 1.65.28 2.18.83s.79 1.29.79 2.21c0 .96-.25 1.69-.76 2.21-.5.52-1.21.79-2.13.8h-2zm0-1.07h1.92c.56 0 .98-.17 1.28-.5.3-.33.44-.81.44-1.43 0-.6-.15-1.08-.46-1.44s-.72-.54-1.26-.54h-1.93v3.91zM121.77 49.97h-1.75V54h-1.26v-9.95h2.79c.98 0 1.71.25 2.21.76s.75 1.25.75 2.23c0 .62-.14 1.15-.41 1.61-.27.46-.66.8-1.15 1.04l1.93 4.23V54h-1.35l-1.76-4.03zm-1.75-1.07h1.52c.52 0 .94-.17 1.25-.51s.47-.79.47-1.36c0-1.28-.58-1.92-1.74-1.92h-1.5v3.79zM130.97 49.4h-3.52v3.53h4.1V54h-5.35v-9.95h5.28v1.07h-4.03v3.21h3.52v1.07zM137.5 51.48c0-.5-.13-.88-.4-1.14s-.75-.52-1.46-.77-1.24-.51-1.61-.79-.65-.59-.83-.94-.28-.76-.28-1.21c0-.79.26-1.44.79-1.95s1.22-.77 2.07-.77c.58 0 1.1.13 1.56.39s.81.62 1.05 1.09.37.97.37 1.53h-1.26c0-.62-.15-1.09-.44-1.43s-.72-.51-1.28-.51c-.51 0-.9.14-1.18.42-.28.28-.42.68-.42 1.19 0 .42.15.77.45 1.05.3.28.77.54 1.39.76.98.32 1.68.72 2.1 1.2s.63 1.09.63 1.86c0 .81-.26 1.45-.79 1.94-.52.49-1.24.73-2.14.73-.58 0-1.11-.13-1.6-.38s-.88-.61-1.16-1.07c-.28-.46-.42-.98-.42-1.58h1.26c0 .62.17 1.09.52 1.44s.81.51 1.4.51c.55 0 .97-.14 1.24-.42s.44-.66.44-1.15zM140.4 54v-9.95h2.84c.91 0 1.59.22 2.05.66s.69 1.1.69 1.99c0 .46-.12.88-.35 1.23s-.55.63-.94.83c.46.14.82.42 1.08.84s.4.93.4 1.53c0 .89-.25 1.6-.73 2.11s-1.19.77-2.1.77h-2.94zm1.25-5.71h1.61c.43 0 .78-.15 1.05-.44.27-.29.4-.68.4-1.16 0-.55-.12-.95-.36-1.2s-.61-.37-1.11-.37h-1.59v3.17zm0 1.05v3.58h1.71c.47 0 .85-.16 1.13-.47.28-.31.42-.75.42-1.32 0-1.2-.51-1.8-1.52-1.8h-1.74zM150.25 49.04l2.04-5h1.42l-2.83 6.24V54h-1.25v-3.71l-2.83-6.24h1.42l2.03 4.99zM160.94 45.12h-2.62V54h-1.25v-8.88h-2.61v-1.07h6.48v1.07zM167.18 49.4h-3.52v3.53h4.1V54h-5.35v-9.95h5.28v1.07h-4.03v3.21h3.52v1.07zM172.37 49.97h-1.75V54h-1.26v-9.95h2.79c.98 0 1.71.25 2.21.76s.75 1.25.75 2.23c0 .62-.14 1.15-.41 1.61-.27.46-.66.8-1.15 1.04l1.93 4.23V54h-1.35l-1.76-4.03zm-1.75-1.07h1.52c.52 0 .94-.17 1.25-.51s.47-.79.47-1.36c0-1.28-.58-1.92-1.74-1.92h-1.5v3.79zM178.1 54h-1.25v-9.95h1.25V54zM185.05 51.4h-3.36l-.77 2.6h-1.29l3.21-9.95h1.07l3.21 9.95h-1.29l-.78-2.6zm-3.03-1.08h2.71l-1.36-4.53-1.35 4.53zM194.98 54h-1.26l-3.99-7.67V54h-1.26v-9.95h1.26l4 7.7v-7.7h1.24V54zM206.59 50.83c-.05 1.07-.35 1.88-.9 2.45-.54.57-1.31.85-2.31.85s-1.79-.38-2.38-1.14c-.59-.76-.88-1.79-.88-3.09v-1.8c0-1.29.3-2.32.91-3.07s1.43-1.13 2.47-1.13c.96 0 1.71.29 2.23.86s.81 1.4.86 2.47h-1.26c-.05-.81-.23-1.39-.51-1.74s-.72-.52-1.31-.52c-.68 0-1.2.27-1.57.8s-.55 1.31-.55 2.33v1.83c0 1.01.17 1.78.51 2.32s.83.81 1.49.81 1.12-.16 1.41-.49.46-.9.53-1.74h1.26zM214.8 54h-1.26v-4.6h-4.01V54h-1.25v-9.95h1.25v4.28h4.01v-4.28h1.26V54zM222.9 44.05v7.08c-.01.94-.28 1.68-.82 2.21s-1.29.8-2.25.8c-.98 0-1.74-.26-2.26-.78-.52-.52-.78-1.27-.79-2.23v-7.08h1.24v7.02c0 .67.14 1.17.43 1.5s.74.5 1.38.5c.64 0 1.1-.17 1.38-.5s.43-.83.43-1.5v-7.02h1.26zM227.84 49.97h-1.75V54h-1.26v-9.95h2.79c.98 0 1.71.25 2.21.76s.75 1.25.75 2.23c0 .62-.14 1.15-.41 1.61-.27.46-.66.8-1.15 1.04l1.93 4.23V54h-1.35l-1.76-4.03zm-1.75-1.07h1.52c.52 0 .94-.17 1.25-.51s.47-.79.47-1.36c0-1.28-.58-1.92-1.74-1.92h-1.5v3.79zM238.5 50.83c-.05 1.07-.35 1.88-.9 2.45-.54.57-1.31.85-2.31.85s-1.79-.38-2.38-1.14c-.59-.76-.88-1.79-.88-3.09v-1.8c0-1.29.3-2.32.91-3.07s1.43-1.13 2.47-1.13c.96 0 1.71.29 2.23.86s.81 1.4.86 2.47h-1.26c-.05-.81-.23-1.39-.51-1.74s-.72-.52-1.31-.52c-.68 0-1.2.27-1.57.8s-.55 1.31-.55 2.33v1.83c0 1.01.17 1.78.51 2.32s.83.81 1.49.81 1.12-.16 1.41-.49.46-.9.53-1.74h1.26zM246.71 54h-1.26v-4.6h-4.01V54h-1.25v-9.95h1.25v4.28h4.01v-4.28h1.26V54z"/></g></g></svg>